# xmcd CD database file
# Copyright (C) 1993-1998 Ti Kan
# 
# Track frame offsets:
#     150
#     17095
#     34580
#     56338
#     74393
# 
# Disc length: 1203 seconds
# 
# Revision: 1
# Processed by: cddbd v1.4b41PL1 Copyright (c) Steve Scherf et al.
# Submitted via: DiscPlay 4.0.4
# 
DISCID=3804b105
DTITLE=Matt Angel - Matt Angel
DYEAR=1900
DGENRE=
TTITLE0=Heaven Cares
TTITLE1=Get Your Baby Cool
TTITLE2=Head Out on The Highway
TTITLE3=Bury Me
TTITLE4=Diamonds
EXTD=
EXTT0=
EXTT1=
EXTT2=
EXTT3=
EXTT4=
PLAYORDER=
